<svg id="Calque_1" data-name="Calque 1" xmlns="http://www.w3.org/2000/svg" version="1.1"
     viewBox="0 0 1000 783.9">
    <defs>
        <style>
            .cls-1, .cls-2 {
            fill: #000;
            stroke-width: 0px;
            }

            .cls-2 {
            display: none;
            }
        </style>
    </defs>
    <path class="cls-2"
          d="M1105,842.9H-105V-84h1209.9v926.9h0ZM620.5,220.3c-.3,0-.5.3-.9.5-.9-1.4-1.7-2.6-2.6-4-6.2-8.5-14.4-13.7-24.9-14.2-15.6-.7-29.4,9.9-33,25.6-2.4,10-2.1,20.2.5,30.4,3.6,14.7,11.9,26.5,24,35.6,16.3,12.4,25.2,29,26.6,49.4,1.2,20.2-4.5,38.4-19.4,52-29.6,27.3-64.7,42.2-104.9,44.6-8.8.5-17.8,0-26.8,0s-18.7-1.9-27.5-5.4c-4.8-1.9-10-3.5-15.6-5.4.7.9.9,1.2,1,1.4.9.5,1.6,1,2.4,1.6,41.3,22.1,84.9,29,130.7,19,49.4-10.7,89.4-36.8,120.3-76.6,26.5-34.1,40.5-73,43.4-115.8,0-2.4,0-4.8-.3-7.3-10.9-45.3-34.8-82.3-73-109.4-30.1-21.3-63.8-31.5-100.6-30.9-6.6,0-6.7.5-9,6.7-1.4,4.1-3.3,8.1-5.2,12.1-.9,1.9-2.8,2.8-5,2.2-1.9-.3-3.1-1.6-3.6-3.5-.3-1.4-.7-2.9-1-4.3-7.8-26.6-24.6-44.4-51.5-52.2-4.1-1.2-8.5-2.2-13.1-1.4.3,2.1.5,3.8.9,5.5,2.1,10.5,1.9,21.1,0,31.5-3.8,22-14.2,40.1-31.1,54.8-23.5,20.2-24,56.7-1.2,77.6,9.3,8.6,20.6,13.1,33.4,12.3,8-.5,15.6-.7,22.8,2.8,2.9,1.4,4.8.3,6.4-2.6.5-1,1-2.1,1.2-3.1,3.3-13.3,9.7-25.4,15.6-37.7,1.9-4,3.8-8,6.4-11.6,11.2-16.3,26.6-26.3,46.3-28.2,30.3-2.9,58.6,16.1,68.1,45.1.3.9.5,1.9.7,2.8l-.5-.2v.3ZM365.5,258.9c-3.8-11.6-4.5-23.2-3.5-34.9,0-1.2,1.2-2.6,2.4-3.3,4-2.8,8.3-5.2,12.3-8,4.5-3.1,5.4-7.3,2.6-11.9-1.6-2.6-2.9-5-4.8-7.3-1.9-2.4-1.7-4.3,0-6.9,8.3-13.3,18.8-23.9,32.5-31.6,13.8-7.8,22.1-19.7,26.1-34.9,1.6-6.2,1.9-12.6.7-19-.7.9-1,1.6-1.2,2.4-4.5,19-15.7,32.5-33.7,40.3-55.8,24-89,80.1-82.6,140.7,3.8,36.3,20.1,66,47.7,89.7,1,.9,2.2,1.7,3.6,2.8,7.8-7.6,10.2-16.6,8.3-27-.7-4-1-8.1-.7-12.1.7-10.9,7.3-19,16.6-21.1,5.4-1.2,10.7-.9,15.9,1,2.9,1,5.7,2.8,8,5.2-2.8-.5-5.4-1.6-8-2.1-2.9-.5-5.9-.5-8.6-.3-10.7.7-19,8.1-20.2,17.8-.7,5.7,1,10.4,4.7,14.9,5.2,6.7,5,16.8-.2,22.5-4,4.3-8.6,7.8-14,10.2-7.8,3.6-15.4,3.3-23-.7-6.7-3.5-11.6-8.8-14.7-15.7-1.6-3.6-3.3-7.3-5.2-11.2-5.4,6.2-4.7,13.3-4.8,21.1-9-8.6-14.9-18-18.3-28.7-5.9-18.7-3.6-36.8,5.9-54.8-2.2.7-3.6,1-4.8,1.7-29.9,13-46.3,45.8-38.6,77.5,5.4,21.8,18.5,37.2,39.2,46.7,33.2,15,50.5,41,52,77.5,0,1.4.2,2.8.3,4.7,2.8-1.7,5.2-2.9,7.3-4.3,30.3-19.9,46-59.5,34.1-95.3-4.1-12.6.9-25.8,12.1-32.5.9-.5,1.9-.9,3.5-1.4-.5,1-.7,1.4-.9,1.9-2.8,5-2.2,9,1.2,12.4,3.3,3.3,7.8,3.6,12.6.9,4.5-2.6,8.1-6.1,10.4-10.7.9-1.7,1-4,1.6-6.1.9-3.3,3.5-5.2,6.4-4.8,3.1.3,5.2,2.9,4.8,6.2,0,1.6-.5,3.3-1.2,4.7-2.2,5.4-5.7,9.9-10.5,13.1-1,.7-1.9,1.6-3.1,2.4,6.6,8.3,14.9,13.8,25.1,14.9,18,1.9,35.6-.5,52.7-6.4,18-6.2,31.3-18,39.9-35.1,1.6-3.1,2.9-6.2,4.5-9.2,1-2.1,2.1-4.1,3.3-6.1,2.4-3.6,4.3-4.5,8.6-3.6,6.1,1.4,10,5.2,11.4,11.2.5,2.4.9,4.8,1.4,8.1,10.4-14,12.6-28.2,6.4-43.4-5.5-13.1-19.5-23.9-30.4-23.5-.2,1.2-.5,2.4-.7,3.8-1.6,8.6-5.5,16.3-11.9,22.5-5.9,5.5-14.2,6.2-21.1,1.9-6.2-4-9.3-11.6-7.4-18.7,2.1-7.8,8.8-13,16.9-13h4c6.6,0,11.6-2.9,15-8.5,2.4-3.6,2.9-7.4.3-11.4-.9-1.2-1.4-2.6-2.2-3.8-9-14.7-13-30.8-12.3-47.9v-6.1c-6.9-2.4-13.5-2.6-19.4,2.1-6.9,5.4-12.6,11.8-17.3,19-4.5,7.1-7.3,14.9-9.7,22.8-2.2,7.4-5.2,14.7-10,20.9-7.6,9.9-14.7,10.4-23.5,1.7-4-3.8-7.8-7.8-11.8-11.6-5.5-5-11.9-8.6-19.2-10.2-4.7-1-9.3-1.6-14-1.9-3.1,0-6.4-.2-9.7,1.9,1.6,1,2.9,1.6,3.8,2.6,3.1,2.9,6.4,5.5,8.8,9,3.6,5,4.5,11.1,3.8,17.3-1.6,13.5,3.6,23.2,15.9,29.4.7.3,1.2.9,2.6,1.7-21.3-3.5-38.6-12.6-52.9-27.5-1.4-1.6-2.1-2.9-1.6-5.2,1.2-5,2.2-10.2,3.1-15.2,1.4-7.1-.5-10-7.6-11.4-4.7-1-9.5-2.1-14.2-3.1l-.9.2h.1ZM713,620.6h0v-40.5c0-14.5-.3-12.1,9.3-22.6,5.4-5.9,14.9-6.7,19.9,3.1,2.2,4.7,2.9,9.5,2.9,14.7,0,27.1,0,54.3-.2,81.4,0,2.2,0,4.5.3,6.7.5,5.5,2.6,10.7,6.1,15.2,4.5,6.1,11.9,6.7,17.5,1.7l3.1-3.1c5.2-5.2,5.5-9.7,2.1-16.3s-2.9-6.9-3.6-10.4c-.7-3.8-.7-7.8-.7-11.6,0-25.2.2-50.3.3-75.6,0-11.8-4.5-21.1-14.4-27.7-4.1-2.8-8.5-5.4-12.8-8-4.7-2.8-6.6-2.4-10.2,1.6-3.8,3.8-7.3,8-11.1,11.6-5.2,5-11.2,5.2-16.4,0s-11.2-9.2-17.8-12.6c-6.2-3.3-7.8-2.9-12.6,2.2-3.5,3.8-6.9,7.8-10.5,11.6-5.5,5.9-11.8,5.9-17.3,0-.5-.5-.9-1-1.4-1.4-4.3-4.1-10.7-4.5-15.6-.7-1.4,1-2.6,2.4-3.8,3.6-4.3,4.7-4.8,10-1,15,3.1,4.1,4.3,8.6,4.3,13.7v85.8c0,8.3,2.4,15.7,8,22,2.6,2.8,5.7,4.5,9.5,4.3,6.1-.3,10-4.3,13-9.2,2.6-4.3,1.6-8.8-1.6-12.8-2.9-4-4.1-8.3-4-13.3v-74c0-3.1,0-6.2,2.4-8.6,3.6-3.8,7.1-7.8,10.9-11.2,4.5-4.1,10.5-3.6,14.9.5,3.1,2.9,4.7,6.6,5.2,10.7.3,2.4.3,4.8.3,7.3,0,13.5.3,27,.3,40.5s-.3,29.6-.5,44.3c0,5.4.7,10.7,3.1,15.6,2.4,5,7.1,7.3,12.4,6.6,4.7-.7,8.3-4.1,9.3-9.3.3-2.4.5-4.8.5-7.3v-43.9l-.3.3h.2ZM468.5,673.6c1,3.8,1.6,6.9,2.6,10,1.6,4,5.7,5.7,9.5,3.8,2.6-1.2,5.2-2.9,7.1-5,3.5-4,6.7-8.3,9.7-12.8,2.6-4.1,4.5-8.6,6.9-12.8,2.6-4.7,6.1-5.5,10.5-2.8,5.7,3.6,11.6,7.3,16.9,11.4,10.2,7.6,13,7.8,23.2.3,5.5-4,11.2-7.8,16.9-11.4,5.2-3.3,8.3-2.4,11.4,3.3,1.9,3.6,3.6,7.3,5.7,10.7,2.2,3.8,4.5,7.6,7.4,10.9,2.8,3.1,6.2,5.7,9.7,8,3.3,2.1,6.9,1,9.2-1.7,3.8-5,3.8-13.5-.3-18.5-6.2-7.6-11.4-15.7-15.7-24.6-13.1-26.5-26.5-52.7-39.8-79.2-3.5-6.9-2.8-9,4.3-12.4.5-.2.9-.3,1.4-.7,3.1-1.9,4.5-4.7,3.5-8.3-.5-2.2-1.4-4.3-2.2-6.4-2.1-5.2-4.5-6.4-10-4.8-3.3.9-6.4,2.2-9.5,3.6-2.8,1.2-5.2,1.2-8,.2-3.3-1.2-6.7-2.4-10.2-3.3-3.3-.9-5.7,0-6.9,2.9-1.4,3.1-2.4,6.4-3.1,9.7-.7,3.1.9,5.7,3.6,7.4,1,.5,2.1.9,3.1,1.4,3.6,2.1,4.7,4.8,3.1,8.6-.3,1-.9,2.1-1.4,3.1-12.3,24.4-24.6,48.8-36.8,73-5.5,11.1-11.1,22.1-19.5,31.3-1.4,1.4-1.9,3.6-2.6,5.2l.3-.2h0ZM417,633.7h.7v25.8c.2,9.3,3.8,17.5,10.5,23.9,3.5,3.3,6.6,3.5,10,.7,3.8-3.1,7.4-6.4,10.9-9.7,3.1-2.9,3.5-6.6.7-9.5-6.2-6.7-7.6-14.9-7.4-23.5.2-14.9.3-29.9.3-44.8s-2.8-14.7-8.5-20.1c-3.1-2.9-6.6-5.2-10-7.8-1.2-.9-2.6-1.6-3.6-2.6-2.4-2.2-2.6-5.4-.9-8s5-3.3,7.8-1.9c.9.3,1.6,1,2.4,1.6,3.3,2.1,6.1,1.9,9-.5,2.9-2.8,5.9-5.5,8.6-8.5,2.8-3.1,2.9-6.6.3-9.7-2.9-3.5-6.1-6.7-9.3-9.9-2.9-2.9-6.4-2.8-9.7,0-1,.9-1.9,1.7-2.8,2.8-9.5,9.7-19.2,19.5-28.7,29.2-.9.9-1.7,1.9-2.8,2.8-4.1,3.3-9.3,1.2-10.2-4-.2-1.6,0-3.3-.3-4.8-.9-8.8-3.1-16.9-9.7-23.3-3.5-3.3-6.7-3.5-10.4-.5-3.8,3.1-7.4,6.4-10.9,9.7-2.9,2.9-3.1,6.4-.7,9.7.9,1.2,1.9,2.2,2.8,3.3,2.2,2.8,3.6,5.9,3.6,9.3.2,9.7.3,19.5.3,29.2s-2.2,10.7-6.2,14.9c-3.6,3.8-3.6,6.7,0,10.7,4.8,5.4,6.6,11.8,6.4,18.8,0,7.4,0,14.9-.3,22.5-.2,10.2,4.3,18.2,12.1,24.4,3.6,2.8,6.6,2.8,10-.3,2.8-2.4,5.5-5,8.1-7.8,3.1-3.1,3.5-6.4.9-9.5-5-6.1-6.4-13-6.1-20.4.5-13.8.9-27.7,0-41.3-.7-8.3,3.1-14.7,9.3-19.9,2.8-2.2,5.5-2.6,8.5-.9,11.1,6.4,17.1,15.6,16.1,28.9-.5,7.1-.7,14.4-1,21.4v-.3h.2ZM865.3,672.3c1.7-.7,3.1-1,4.5-1.7,1.2-.7,2.4-1.6,3.6-2.4,6.7-4.5,13.5-9,20.2-13.5,6.1-4,8.5-3.3,11.9,3.1,1.9,3.5,3.5,6.9,5.4,10.4,1.9,3.3,4,6.7,6.2,9.9,2.9,4,6.6,7.1,11.1,9.3,2.4,1.4,5,1.6,7.4,0,3.8-2.4,6.4-15,3.8-18.8-.3-.5-.7-1-1.2-1.6-.9-1-1.6-2.1-2.6-2.9-5.7-5.7-9.9-12.3-13.5-19.5-10.7-21.3-21.3-42.7-32.2-64-5.4-10.4-10.7-20.7-16.3-30.9-4.7-8.6-11.8-15-20.6-19.5-4.8-2.4-7.4-1.4-9.7,3.5-1.2,2.8-2.2,5.7-2.9,8.8-.9,3.8.3,6.2,3.8,8.1,1.2.7,2.8,1.2,4,1.9,3.1,1.9,4.1,4.5,2.8,7.8-.3,1-1,2.1-1.6,3.1-14.2,28-28.4,55.8-42.5,83.9-3.6,7.3-7.3,14.5-13.8,19.7-.5.3-.9,1-1.2,1.4-1.7,1.9-2.4,4.1-1.6,6.7.9,2.4,1.2,5,1.9,7.6,1.7,6.1,5.7,7.6,11.2,4.5,4.3-2.4,8-5.7,10.7-9.7,2.2-3.3,4.5-6.7,6.4-10.4,1.9-3.3,3.5-6.6,5.2-9.9,2.9-5.4,5.5-6.1,10.7-2.9.7.3,1.4.9,2.1,1.4,6.9,4.7,13.7,9.3,20.6,13.8,1.9,1.2,4,2.1,5.9,2.9h.3ZM60.2,672.6c1,4,1.7,7.8,3.1,11.4,2.1,5,8.3,5.9,12.1,2.1.9-.9,1.7-1.9,2.4-2.9,6.2-8.3,12.4-16.6,18.7-24.9,4.1-5.5,6.9-6.2,12.6-2.4,6.9,4.5,13.8,9.2,20.7,13.8,5.2,3.5,6.6,3.5,11.9,0,6.7-4.5,13.7-8.8,20.2-13.7,7.1-5.2,11.2-3.5,14.9,4,2.6,5.4,5.5,10.5,8.8,15.7,3.1,4.8,7.1,8.8,12.3,11.6,4.5,2.2,9.2.5,10.7-4.1,1-3.3,1.7-6.6,2.4-9.9.5-2.2,0-4.1-2.2-5.4-5.2-2.8-8.5-7.4-11.1-12.6s-7.3-14.5-10.9-21.8c-11.9-23.9-23.9-47.5-35.8-71.4-3.5-6.9-2.8-8,4-11.1.9-.3,1.9-.7,2.6-1.4,2.4-1.9,3.8-4.3,2.9-7.3-1-3.5-2.2-6.7-4-9.9-2.1-3.5-5.2-4.3-8.8-2.6-2.2,1-4.3,2.4-6.2,3.8-8,6.2-13.7,14.4-18.2,23.2-14.2,27.8-28.2,55.5-42.2,83.5-4.8,9.5-9.7,18.8-17.6,26.1-.7.7-1.4,1.4-1.9,2.2-.7,1.2-1,2.6-1.6,4v-.2l.2.2ZM227.5,615.4h0v23.3c0,6.9-.2,14-.2,20.9s2.1,13.1,6.4,18.5c4.8,6.1,13.1,6.7,19.2,1.9,5.4-4.3,6.7-10.9,3.5-17.5-1.9-4-3.8-7.8-3.8-12.4,0-25.4,0-50.7-.2-76.1,0-3.8,1-6.9,4-9.5,2.1-1.7,4.1-3.8,5.9-5.9,6.2-7.3,19.7-6.7,22.8,6.4.9,3.8,1,7.8,1,11.6v81.8c0,7.3,1.9,13.8,6.1,19.7,2.2,3.3,5.2,5.4,9.2,5.7,5.9.7,10.5-1.6,13.7-6.4s2.9-10-.3-14.7c-2.9-4.1-3.8-8.5-3.6-13.3.2-6.4,0-12.6,0-19v-66.7c0-7.6-1.6-14.9-7.3-20.1-6.6-5.9-13.7-10.9-20.7-16.1-2.9-2.2-5.5-1.7-8.5.7-1,.9-2.1,2.1-3.1,3.1-2.9,3.1-5.7,6.2-8.8,9.2-6.2,6.1-14,5.7-19.7-.7-.9-1-1.6-2.1-2.4-2.9-2.8-2.9-6.4-3.1-9.3-.5-1.7,1.6-3.3,3.1-4.8,4.8-6.4,6.7-6.9,12.6-1.7,20.1,2.1,2.9,2.9,6.1,2.9,9.5v44.6h-.3Z"/>
    <path class="cls-1"
          d="M712.3,285.3c-.3-1.4-.5-3-1.1-4.4-15.1-46-59.7-76.2-107.9-71.5-31.2,3-55.6,18.9-73.4,44.7-3.8,5.7-7.1,12-10.1,18.4-9.4,19.5-19.5,38.7-24.7,59.7-.5,1.6-1.1,3.5-1.9,4.9-2.5,4.6-5.5,6.3-10.1,4.1-11.7-5.7-23.8-5.2-36.1-4.4-20.3,1.1-37.9-5.7-52.9-19.5-36.1-33.1-35.3-91,1.9-123,26.8-23.3,43.3-52.1,49.3-86.8,3-16.5,3.3-33.4,0-49.9-.5-2.7-.8-5.5-1.4-8.7,7.4-1.4,14.3,0,20.8,2.2,42.8,12.4,69.3,40.6,81.6,82.7.5,2.2,1.1,4.4,1.6,6.8.8,3,2.7,4.9,5.7,5.5,3.3.5,6.3-.5,7.9-3.5,3-6.3,5.7-12.7,8.2-19.2,3.3-9.7,3.8-10.5,14.3-10.6,58.3-.8,111.7,15.4,159.4,49,60.5,42.9,98.4,101.4,115.7,173.4.8,3.5.8,7.6.5,11.6-4.6,68-26.8,129.6-68.8,183.5-49,63.1-112.4,104.4-190.7,121.4-72.6,15.8-141.7,4.9-207.1-30.1-1.4-.8-2.7-1.6-3.8-2.5-.3,0-.5-.8-1.6-2.2,8.7,3,17,5.5,24.7,8.6,13.9,5.7,28.5,8.7,43.6,8.6,14.3,0,28.2.8,42.5,0,63.9-3.8,119.5-27.4,166.2-70.7,23.6-21.9,32.8-50.7,30.7-82.4-1.9-32.3-16.5-58.6-42.2-78.3-18.9-14.6-32-33.1-38-56.4-4.1-15.8-4.6-32-.8-48.2,5.7-24.7,27.7-41.7,52.3-40.6,17,.8,29.6,9,39.5,22.5,1.4,1.9,2.7,4.1,4.1,6.3.5,0,.8-.5,1.4-.8l.8.3v-.5ZM448.8,230.2c-14.7,0-26.3,12.4-26.3,27.7s11.6,27.4,26.6,27.4,26-12.4,26-27.1-12-27.9-26.3-27.9v-.2Z"/>
    <path class="cls-1"
          d="M308.2,346.5c7.4,1.6,14.7,3.3,22.5,4.9,10.9,2.2,14.3,6.8,12,18.1-1.6,8.2-3,16.2-4.9,24.1-.8,3.5,0,5.7,2.5,8.2,22.8,23.6,50.1,38.4,83.8,43.6-2.2-1.4-3-2.2-4.1-2.7-19.5-10.1-27.7-25.2-25.2-46.6,1.1-9.8,0-19.2-6-27.4-3.8-5.5-9-9.7-13.9-14.3-1.6-1.6-3.8-2.5-6-4.1,5.2-3.3,10.5-3.3,15.4-3,7.4.3,14.7,1.4,22.2,3,11.6,2.5,21.7,8.2,30.4,16.2,6.5,6,12.4,12.4,18.7,18.4,13.9,13.6,25.2,12.8,37.2-2.7,7.6-9.8,12.4-21.4,15.8-33.1,3.8-12.7,8.2-24.9,15.4-36.1,7.4-11.6,16.5-21.7,27.4-30.1,9.7-7.4,19.7-6.8,30.7-3.3v9.7c-1.1,27.1,5.2,52.6,19.5,75.9,1.1,1.9,2.2,4.1,3.5,6,4.1,6.3,3.3,12-.5,18.1-5.5,8.7-13.5,13.2-23.8,13.5h-6.3c-12.7,0-23.3,8.2-26.8,20.6-3,10.9,1.9,23.3,11.7,29.6,10.9,6.8,24.1,5.7,33.4-3,10.1-9.8,16.5-21.7,18.9-35.7.3-1.9.8-4.1,1.1-6,17.3-.3,39.8,16.6,48.2,37.2,10.1,24.1,6.3,46.6-10.1,68.8-.8-5.2-1.4-9.4-2.2-12.8-2.2-9.7-8.6-15.7-18.1-17.7-6.8-1.6-9.8,0-13.6,5.7-1.9,3-3.5,6.3-5.2,9.7-2.5,4.9-4.6,9.8-7.1,14.6-13.6,27.1-34.9,45.8-63.2,55.6-27.1,9.7-55.2,13.2-83.5,10.1-16.5-1.6-29.3-10.5-39.8-23.6,1.9-1.4,3.3-2.7,4.9-3.8,7.4-5.5,12.8-12.7,16.6-20.8,1.1-2.2,1.6-4.9,1.9-7.4.5-5.2-2.7-9.4-7.6-9.8-4.6-.5-8.7,2.5-10.1,7.6-.8,3.3-1.1,6.5-2.5,9.7-3.8,7.1-9.7,12.8-16.5,17-7.4,4.4-14.6,3.8-20-1.4-5.5-5.5-6-11.7-1.9-19.7.3-.5.5-1.4,1.4-3-2.5,1.1-4.1,1.4-5.5,2.2-17.7,10.6-25.8,31.5-19.2,51.5,18.7,56.7-6,119.5-54,151-3.3,2.2-7.1,4.1-11.6,6.8,0-3-.5-5.2-.5-7.4-2.5-57.8-30.1-98.9-82.4-122.8-32.8-14.7-53.7-39.5-62.1-74-12.4-50.1,13.9-102.2,61.2-122.8,1.9-.8,4.1-1.4,7.6-2.7-15.1,28.8-18.7,57.2-9.4,86.8,5.5,17.3,14.7,32,29,45.5.3-12.4-.8-23.6,7.6-33.4,2.7,6.3,5.5,12,8.2,17.7,4.9,10.9,12.7,19.5,23.3,24.9,12,6.3,24.1,6.8,36.5,1.1,8.6-3.8,15.8-9.4,22.2-16.2,8.6-9,8.6-24.9.3-35.7-5.5-7.1-8.6-14.7-7.4-23.6,1.9-15.4,15.1-26.8,32-28.2,4.6-.3,9.4,0,13.6.5,4.1.8,8.2,2.5,12.7,3.3-3.5-3.8-7.9-6.5-12.7-8.2-8.2-2.7-16.6-3.3-25.2-1.6-14.7,3.3-24.9,16.2-26.3,33.4-.5,6.3,0,12.8,1.1,19.2,3,16.5-.8,30.4-13.2,42.8-1.9-1.6-3.8-2.7-5.7-4.4-43.9-37.6-69.6-84.6-75.6-142.2-10.1-95.9,42.5-184.9,130.9-223,28.5-12.4,46-33.8,53.4-63.9.3-1.4.8-2.7,1.9-3.8,1.9,10.1,1.4,20.3-1.1,30.1-6,24.1-19.5,42.8-41.4,55.3-21.4,12.4-38.4,29-51.5,50.1-2.5,4.1-2.7,7.1,0,10.9,2.7,3.5,5.2,7.6,7.6,11.6,4.4,7.4,3,13.9-4.1,18.9-6.3,4.4-13.2,8.2-19.5,12.7-1.6,1.1-3.5,3.3-3.8,5.2-1.6,18.7-.5,36.9,5.5,55.3l1.4-.3-.2-.2ZM501,478.5c14.3,0,25.8-11.3,25.5-25.2,0-13.6-12-25.8-25.5-25.8s-25.2,11.3-25.5,25.5c0,14.3,11.3,25.5,25.2,25.5h.3Z"/>
    <path class="cls-2"
          d="M454.2,185.5c9,0,16.4,8,16.6,17.6,0,9.3-7.4,17.1-16.4,17.1s-16.6-7.4-16.8-17.3c0-9.7,7.3-17.3,16.6-17.5h0Z"/>
    <path class="cls-2"
          d="M487.2,342.2c-9,0-16.1-7.1-15.9-16.1,0-9,7.1-16.1,16.1-16.1s16.1,7.6,16.1,16.3-7.3,15.9-16.1,15.9h-.2Z"/>
    <path class="cls-2"
          d="M545.6,586.1c.9.7,2.8,1.7,3.8,3.5,5.5,10.4,11.1,20.9,16.4,31.5,1.6,3.1,1,5.5-1.9,7.8-5.4,4.3-10.7,8.3-16.3,12.4-2.4,1.9-5.2,1.9-7.8,0-5.5-4-10.9-8.1-16.3-12.3-2.9-2.2-3.5-4.8-1.7-8.3,5.2-10.4,10.7-20.7,16.1-31.1,1.4-2.6,3.5-3.6,7.6-3.5h.1Z"/>
    <path class="cls-2"
          d="M866.5,643.2c-2.8-1.2-5.4-1.7-7.4-3.1-5-3.6-9.7-7.8-14.4-11.8-1.9-1.7-2.6-4-1.4-6.6.5-1,.9-2.1,1.4-3.1,5-9.5,10-19,14.9-28.5,1.2-2.4,2.8-4.5,5.7-4.5s4.8,2.1,6.2,4.7c5.2,10.2,10.5,20.4,15.7,30.8,2.1,4,1.6,5.5-1.7,8.3-4,3.3-7.8,6.7-11.9,10-2.1,1.6-4.7,2.6-7.3,4l.2-.2h0Z"/>
    <path class="cls-2"
          d="M134.8,641.8c-2.1-.7-4.3-1-5.9-2.2-4.8-3.6-9.5-7.3-14-11.2-2.2-1.9-2.4-4.5-1-7.1,5.2-10.2,10.2-20.6,15.7-30.8,2.9-5.5,9.3-5.7,12.3,0,5.4,10.2,10.5,20.4,15.7,30.8s.9,6.1-1.7,8c-4.8,3.8-9.9,7.3-15,10.7-1.7,1-3.8,1.4-6.1,2.2v-.3h0Z"/>
</svg>